<svg xmlns="http://www.w3.org/2000/svg" viewBox="0 0 500 500"><g id="freepik--Floor--inject-34"><path d="M416.38,252.49c-91-51.93-238-51.93-328.46,0S-2,388.62,89,440.55s238.06,51.93,328.47,0S507.38,304.42,416.38,252.49Z" style="fill:#f5f5f5"></path></g><g id="freepik--Shadows--inject-34"><path d="M237.62,349.71c9-5.2,23.25-5.47,32.77-.84,24.51-8.53,56.74-6.69,77.77,5.54,12.81,7.44,18.95,17.28,18.46,27a58.48,58.48,0,0,1,21.1,6.88c17.47,10.15,17.38,26.61-.2,36.76s-46,10.15-63.46,0a30.41,30.41,0,0,1-9.61-8.35c-19.94,2.14-41.26-1.25-56.61-10.17C241.45,397,236,383.61,241.33,371.43a25.8,25.8,0,0,1-3.82-1.81C228.05,364.12,228.1,355.21,237.62,349.71Z" style="fill:#e6e6e6"></path><path d="M135.58,388.72c23.61-13.63,61.76-13.63,85.21,0s23.33,35.73-.27,49.36-61.76,13.63-85.22,0S112,402.35,135.58,388.72Z" style="fill:#e6e6e6"></path><path d="M259.58,235.44c16.28-9.4,42.59-9.4,58.77,0s16.09,24.65-.19,34.05-42.6,9.4-58.78,0S243.29,244.85,259.58,235.44Z" style="fill:#e6e6e6"></path><path d="M364.24,279.49c13.87-8,36.29-8,50.07,0s13.71,21-.16,29-36.29,8-50.08,0S350.36,287.5,364.24,279.49Z" style="fill:#e6e6e6"></path></g><g id="freepik--Clouds--inject-34"><path d="M103.55,62.82c4.76-2.75,8.78-1.4,10.06,2.87A14.18,14.18,0,0,1,118.76,60c3.73-2.15,6.76-.42,6.78,3.87v2l5-2.9c2.62-1.51,4.74-.29,4.75,2.71a10.37,10.37,0,0,1-4.72,8.17L88.14,98.29c-2.61,1.5-4.74.3-4.75-2.71a10.41,10.41,0,0,1,4.72-8.17l5-2.9V80.89C93.09,74.25,97.76,66.16,103.55,62.82Z" style="fill:#e6e6e6"></path><path d="M145.14,78.87c3.41-2,6.3-1,7.22,2.06a10.21,10.21,0,0,1,3.69-4.11c2.68-1.54,4.86-.3,4.87,2.78V81l3.6-2.08c1.88-1.08,3.4-.21,3.41,1.95a7.47,7.47,0,0,1-3.39,5.86l-30.46,17.59c-1.88,1.08-3.4.21-3.41-1.94a7.44,7.44,0,0,1,3.39-5.87l3.59-2.08v-2.6C137.63,87.08,141,81.27,145.14,78.87Z" style="fill:#e6e6e6"></path></g><g id="freepik--Trees--inject-34"><path d="M297.61,195.49H281.15v54.33h0c0,1.22.82,2.44,2.43,3.37a12.84,12.84,0,0,0,11.64,0c1.6-.94,2.4-2.15,2.39-3.37h0Z" style="fill:#f28f8f"></path><path d="M297.61,195.49H281.15v54.33h0c0,1.22.82,2.44,2.43,3.37a12.84,12.84,0,0,0,11.64,0c1.6-.94,2.4-2.15,2.39-3.37h0Z" style="opacity:0.30000000000000004"></path><path d="M285,253.52h0a4.95,4.95,0,1,0-9.89,0,2.49,2.49,0,0,0,1.46,2,7.69,7.69,0,0,0,7,0,2.46,2.46,0,0,0,1.44-2Z" style="fill:#37474f"></path><path d="M283,249.44a5.35,5.35,0,0,1,.78,1.59,3.32,3.32,0,0,1-.36,2.72,4.24,4.24,0,0,1-2.39,1.49,10.72,10.72,0,0,1-4.4.34,7.66,7.66,0,0,0,6.9,0,2.46,2.46,0,0,0,1.44-2h0A4.54,4.54,0,0,0,283,249.44Z" style="opacity:0.30000000000000004"></path><path d="M276.68,256h0a3.47,3.47,0,1,0-6.93,0,1.78,1.78,0,0,0,1,1.42,5.4,5.4,0,0,0,4.89,0,1.73,1.73,0,0,0,1-1.42Z" style="fill:#455a64"></path><path d="M275.3,253.09a3.77,3.77,0,0,1,.55,1.12,2.34,2.34,0,0,1-.25,1.9,3,3,0,0,1-1.68,1,7.46,7.46,0,0,1-3.08.24,5.37,5.37,0,0,0,4.83,0,1.73,1.73,0,0,0,1-1.42h0A3.16,3.16,0,0,0,275.3,253.09Z" style="opacity:0.30000000000000004"></path><path d="M303.41,252.32h0a3.75,3.75,0,1,0-7.5,0,1.88,1.88,0,0,0,1.1,1.54,5.85,5.85,0,0,0,5.31,0,1.87,1.87,0,0,0,1.09-1.54Z" style="fill:#455a64"></path><path d="M301.92,249.23a4.12,4.12,0,0,1,.59,1.21,2.48,2.48,0,0,1-.28,2.06,3.22,3.22,0,0,1-1.81,1.13,8.38,8.38,0,0,1-3.34.26,5.86,5.86,0,0,0,5.24,0,1.87,1.87,0,0,0,1.09-1.54h0A3.44,3.44,0,0,0,301.92,249.23Z" style="opacity:0.30000000000000004"></path><path d="M344.9,177.37l-49.48-104a6.86,6.86,0,0,0-4.36-3.8,6.54,6.54,0,0,0-7.58,3.51L233.86,177.37a5.13,5.13,0,0,0,3.52,7.21,5.32,5.32,0,0,1,4.16,5.19V191a8.9,8.9,0,0,0,10.58,8.88l.76-.15a8.87,8.87,0,0,1,9.91,5.32l1.27,3.08a8.79,8.79,0,0,0,12.17,4.44l7.25-3.76a12.83,12.83,0,0,1,11.81,0l7.24,3.76a8.79,8.79,0,0,0,12.17-4.44L316,205a8.87,8.87,0,0,1,9.91-5.32l.76.15a8.87,8.87,0,0,0,10.58-8.7v-1.39a5.32,5.32,0,0,1,4.16-5.19A5.13,5.13,0,0,0,344.9,177.37Z" style="fill:#99DE9F"></path><path d="M344.9,177.37l-49.48-104a6.86,6.86,0,0,0-4.36-3.8,6.54,6.54,0,0,0-7.58,3.51L233.86,177.37a5.13,5.13,0,0,0,3.52,7.21,5.32,5.32,0,0,1,4.16,5.19V191a8.9,8.9,0,0,0,10.58,8.88l.76-.15a8.87,8.87,0,0,1,9.91,5.32l1.27,3.08a8.79,8.79,0,0,0,12.17,4.44l7.25-3.76a12.83,12.83,0,0,1,11.81,0l7.24,3.76a8.79,8.79,0,0,0,12.17-4.44L316,205a8.87,8.87,0,0,1,9.91-5.32l.76.15a8.87,8.87,0,0,0,10.58-8.7v-1.39a5.32,5.32,0,0,1,4.16-5.19A5.13,5.13,0,0,0,344.9,177.37Z" style="opacity:0.30000000000000004"></path><g style="opacity:0.2"><path d="M248.74,157.33v1a7.57,7.57,0,0,0,9,7.55l.64-.13a7.54,7.54,0,0,1,8.42,4.52l1.08,2.61a7.47,7.47,0,0,0,10.34,3.78l6.15-3.2a10.92,10.92,0,0,1,10,0l6.15,3.2a7.47,7.47,0,0,0,10.34-3.78L312,170.3a7.54,7.54,0,0,1,8.42-4.52l.64.13a7.54,7.54,0,0,0,9-7.4v-1.18A4.51,4.51,0,0,1,333.3,153L295.42,73.41a6.86,6.86,0,0,0-4.36-3.8,6.54,6.54,0,0,0-7.58,3.51l-38,79.88A4.51,4.51,0,0,1,248.74,157.33Z"></path></g><path d="M334.17,142.54,294.25,58.66a5.56,5.56,0,0,0-3.51-3.06,5.29,5.29,0,0,0-6.12,2.83l-40,84.11a4.15,4.15,0,0,0,2.84,5.82,4.27,4.27,0,0,1,3.35,4.18v1a7.18,7.18,0,0,0,8.54,7.16l.61-.12a7.17,7.17,0,0,1,8,4.29l1,2.49a7.08,7.08,0,0,0,9.81,3.58l5.85-3a10.35,10.35,0,0,1,9.53,0l5.84,3a7.09,7.09,0,0,0,9.82-3.58l1-2.49a7.17,7.17,0,0,1,8-4.29l.61.12a7.16,7.16,0,0,0,8.54-7v-1.12a4.27,4.27,0,0,1,3.35-4.18A4.14,4.14,0,0,0,334.17,142.54Z" style="fill:#99DE9F"></path><path d="M334.17,142.54,294.25,58.66a5.56,5.56,0,0,0-3.51-3.06,5.29,5.29,0,0,0-6.12,2.83l-40,84.11a4.15,4.15,0,0,0,2.84,5.82,4.27,4.27,0,0,1,3.35,4.18v1a7.18,7.18,0,0,0,8.54,7.16l.61-.12a7.17,7.17,0,0,1,8,4.29l1,2.49a7.08,7.08,0,0,0,9.81,3.58l5.85-3a10.35,10.35,0,0,1,9.53,0l5.84,3a7.09,7.09,0,0,0,9.82-3.58l1-2.49a7.17,7.17,0,0,1,8-4.29l.61.12a7.16,7.16,0,0,0,8.54-7v-1.12a4.27,4.27,0,0,1,3.35-4.18A4.14,4.14,0,0,0,334.17,142.54Z" style="opacity:0.2"></path><g style="opacity:0.2"><path d="M260.91,119.67v.72a5.3,5.3,0,0,0,6.3,5.29l.45-.09a5.28,5.28,0,0,1,5.9,3.16l.75,1.83a5.23,5.23,0,0,0,7.24,2.65l4.32-2.24a7.65,7.65,0,0,1,7,0l4.31,2.24a5.23,5.23,0,0,0,7.24-2.65l.76-1.83a5.27,5.27,0,0,1,5.89-3.16l.46.09a5.28,5.28,0,0,0,6.29-5.18v-.83a3.17,3.17,0,0,1,2.48-3.09,3,3,0,0,0,1.21-.57L294.25,58.66a5.56,5.56,0,0,0-3.51-3.06,5.29,5.29,0,0,0-6.12,2.83L257.22,116a3,3,0,0,0,1.21.57A3.17,3.17,0,0,1,260.91,119.67Z"></path></g><path d="M321.34,105.87,292.86,46a4,4,0,0,0-2.51-2.19,3.75,3.75,0,0,0-4.36,2l-28.57,60a3,3,0,0,0,2,4.15,3.06,3.06,0,0,1,2.4,3v.7a5.13,5.13,0,0,0,6.09,5.11l.44-.09a5.1,5.1,0,0,1,5.7,3.06l.74,1.77a5.05,5.05,0,0,0,7,2.56L286,124a7.36,7.36,0,0,1,6.8,0l4.17,2.16a5.06,5.06,0,0,0,7-2.56l.73-1.77a5.1,5.1,0,0,1,5.7-3.06l.44.09a5.11,5.11,0,0,0,6.09-5V113a3.06,3.06,0,0,1,2.4-3A3,3,0,0,0,321.34,105.87Z" style="fill:#99DE9F"></path><path d="M396.28,245.83H382.1v46.8h0a3.57,3.57,0,0,0,2.1,2.9,11.06,11.06,0,0,0,10,0,3.49,3.49,0,0,0,2.06-2.9h0Z" style="fill:#f28f8f"></path><path d="M396.28,245.83H382.1v46.8h0a3.57,3.57,0,0,0,2.1,2.9,11.06,11.06,0,0,0,10,0,3.49,3.49,0,0,0,2.06-2.9h0Z" style="opacity:0.30000000000000004"></path><path d="M404.59,294.66h0a5.41,5.41,0,1,0-10.81,0,2.69,2.69,0,0,0,1.59,2.21,8.39,8.39,0,0,0,7.65,0,2.68,2.68,0,0,0,1.57-2.21Z" style="fill:#37474f"></path><path d="M402.44,290.2a6,6,0,0,1,.84,1.74,3.56,3.56,0,0,1-.39,3,4.69,4.69,0,0,1-2.61,1.63,11.9,11.9,0,0,1-4.82.38,8.45,8.45,0,0,0,7.56-.05,2.68,2.68,0,0,0,1.57-2.21h0A5,5,0,0,0,402.44,290.2Z" style="opacity:0.30000000000000004"></path><path d="M437,230.22l-42.62-89.55a5.92,5.92,0,0,0-3.75-3.27,5.64,5.64,0,0,0-6.53,3l-42.74,89.8a4.41,4.41,0,0,0,3,6.21A4.59,4.59,0,0,1,348,240.9v1a7.67,7.67,0,0,0,9.12,7.65l.65-.13a7.66,7.66,0,0,1,8.54,4.58l1.09,2.65a7.58,7.58,0,0,0,10.48,3.83l6.24-3.24a11,11,0,0,1,10.18,0l6.24,3.24A7.57,7.57,0,0,0,411,256.7l1.09-2.65a7.66,7.66,0,0,1,8.54-4.58l.66.13a7.64,7.64,0,0,0,9.11-7.5v-1.19a4.59,4.59,0,0,1,3.58-4.48A4.41,4.41,0,0,0,437,230.22Z" style="fill:#99DE9F"></path><path d="M437,230.22l-42.62-89.55a5.92,5.92,0,0,0-3.75-3.27,5.64,5.64,0,0,0-6.53,3l-42.74,89.8a4.41,4.41,0,0,0,3,6.21A4.59,4.59,0,0,1,348,240.9v1a7.67,7.67,0,0,0,9.12,7.65l.65-.13a7.66,7.66,0,0,1,8.54,4.58l1.09,2.65a7.58,7.58,0,0,0,10.48,3.83l6.24-3.24a11,11,0,0,1,10.18,0l6.24,3.24A7.57,7.57,0,0,0,411,256.7l1.09-2.65a7.66,7.66,0,0,1,8.54-4.58l.66.13a7.64,7.64,0,0,0,9.11-7.5v-1.19a4.59,4.59,0,0,1,3.58-4.48A4.41,4.41,0,0,0,437,230.22Z" style="opacity:0.30000000000000004"></path><g style="opacity:0.2"><path d="M354.18,213v.89a6.52,6.52,0,0,0,7.75,6.5l.55-.11a6.51,6.51,0,0,1,7.26,3.89l.93,2.25a6.43,6.43,0,0,0,8.9,3.26l5.3-2.76a9.41,9.41,0,0,1,8.64,0l5.31,2.76a6.43,6.43,0,0,0,8.9-3.26l.93-2.25a6.49,6.49,0,0,1,7.25-3.89l.56.11A6.49,6.49,0,0,0,424.2,214v-1a3.87,3.87,0,0,1,2.82-3.73l-32.63-68.57a5.92,5.92,0,0,0-3.75-3.27,5.64,5.64,0,0,0-6.53,3l-32.75,68.82A3.87,3.87,0,0,1,354.18,213Z"></path></g><path d="M427.77,200.22,393.39,128a4.77,4.77,0,0,0-3-2.63,4.55,4.55,0,0,0-5.27,2.43l-34.48,72.45a3.56,3.56,0,0,0,2.44,5,3.7,3.7,0,0,1,2.89,3.61v.84a6.19,6.19,0,0,0,7.36,6.17l.53-.1a6.16,6.16,0,0,1,6.88,3.69l.89,2.14a6.1,6.1,0,0,0,8.45,3.09l5-2.61a8.89,8.89,0,0,1,8.21,0l5,2.61a6.11,6.11,0,0,0,8.46-3.09l.88-2.14a6.16,6.16,0,0,1,6.89-3.69l.52.1a6.17,6.17,0,0,0,7.36-6v-1a3.7,3.7,0,0,1,2.89-3.61A3.56,3.56,0,0,0,427.77,200.22Z" style="fill:#99DE9F"></path><path d="M427.77,200.22,393.39,128a4.77,4.77,0,0,0-3-2.63,4.55,4.55,0,0,0-5.27,2.43l-34.48,72.45a3.56,3.56,0,0,0,2.44,5,3.7,3.7,0,0,1,2.89,3.61v.84a6.19,6.19,0,0,0,7.36,6.17l.53-.1a6.16,6.16,0,0,1,6.88,3.69l.89,2.14a6.1,6.1,0,0,0,8.45,3.09l5-2.61a8.89,8.89,0,0,1,8.21,0l5,2.61a6.11,6.11,0,0,0,8.46-3.09l.88-2.14a6.16,6.16,0,0,1,6.89-3.69l.52.1a6.17,6.17,0,0,0,7.36-6v-1a3.7,3.7,0,0,1,2.89-3.61A3.56,3.56,0,0,0,427.77,200.22Z" style="opacity:0.2"></path><g style="opacity:0.2"><path d="M364.66,180.52v.63a4.57,4.57,0,0,0,5.43,4.55l.39-.08a4.55,4.55,0,0,1,5.08,2.73l.65,1.57a4.5,4.5,0,0,0,6.24,2.28l3.71-1.92a6.55,6.55,0,0,1,6.06,0l3.71,1.92a4.5,4.5,0,0,0,6.24-2.28l.65-1.57a4.56,4.56,0,0,1,5.08-2.73l.39.08a4.56,4.56,0,0,0,5.43-4.47v-.71a2.73,2.73,0,0,1,2.13-2.66,2.54,2.54,0,0,0,1-.49L393.39,128a4.77,4.77,0,0,0-3-2.63,4.55,4.55,0,0,0-5.27,2.43l-23.6,49.6a2.5,2.5,0,0,0,1,.49A2.73,2.73,0,0,1,364.66,180.52Z"></path></g><path d="M416.72,168.63l-24.54-51.55A3.38,3.38,0,0,0,390,115.2a3.23,3.23,0,0,0-3.76,1.74l-24.61,51.69a2.55,2.55,0,0,0,1.75,3.58,2.64,2.64,0,0,1,2.06,2.57v.61a4.42,4.42,0,0,0,5.25,4.4l.37-.08a4.41,4.41,0,0,1,4.92,2.64l.63,1.53a4.35,4.35,0,0,0,6,2.2l3.59-1.86a6.32,6.32,0,0,1,5.86,0l3.59,1.86a4.36,4.36,0,0,0,6-2.2l.63-1.53a4.4,4.4,0,0,1,4.91-2.64l.38.08a4.4,4.4,0,0,0,5.25-4.32v-.69a2.63,2.63,0,0,1,2.06-2.57A2.54,2.54,0,0,0,416.72,168.63Z" style="fill:#99DE9F"></path></g><g id="freepik--Rocks--inject-34"><path d="M121.71,330.6a40,40,0,0,0,6.19-38.68,40.24,40.24,0,0,1-9.3,38C119.5,330.19,120.81,330.33,121.71,330.6Z" style="fill:#99DE9F"></path><path d="M116.86,327.5a24.91,24.91,0,0,0-10.14-28.69,26.42,26.42,0,0,1,7.91,27.43C115.35,326.66,116.14,327.08,116.86,327.5Z" style="fill:#99DE9F"></path><path d="M121.71,330.6a40,40,0,0,0,6.19-38.68,40.24,40.24,0,0,1-9.3,38C119.5,330.19,120.81,330.33,121.71,330.6Z" style="opacity:0.30000000000000004"></path><path d="M116.86,327.5a24.91,24.91,0,0,0-10.14-28.69,26.42,26.42,0,0,1,7.91,27.43C115.35,326.66,116.14,327.08,116.86,327.5Z" style="opacity:0.2"></path><path d="M119.83,329.94a35.89,35.89,0,0,0,3.79-23.72A36.36,36.36,0,0,0,111,285.57a38.67,38.67,0,0,1,4.69,43.21Z" style="fill:#99DE9F"></path><path d="M111,285.57a38.67,38.67,0,0,1,4.69,43.21l2,.56C123.09,317.23,124.35,298.9,111,285.57Z" style="opacity:0.2"></path><path d="M127.9,291.92a40.37,40.37,0,0,1-6.41,34.54,36,36,0,0,0,2.13-20.24A36.36,36.36,0,0,0,111,285.57a38.56,38.56,0,0,1,6.59,39,24.85,24.85,0,0,0-10.89-25.75,26.42,26.42,0,0,1,7.91,27.43l1.81,1c-.24.5-.46,1-.73,1.51l2,.55h0l1.12.32c-.09.09-.16.18-.24.27.9.26,2.21.4,3.11.67A40,40,0,0,0,127.9,291.92Z" style="fill:#fff;opacity:0.6000000000000001"></path><polygon points="77.54 328.46 94.12 313.23 101.17 312.46 111.4 317.99 112.98 323.07 117.66 327.43 119.64 333.5 110.05 337.45 109.05 338.89 102.58 341.75 99.7 345.7 91.44 345.57 88.13 342.12 78.74 340.61 71.88 337.73 72.39 333.49 74.27 329.32 77.54 328.46" style="fill:#e0e0e0"></polygon><polygon points="77.54 328.46 74.27 329.32 72.39 333.49 79.64 336.89 93.08 338.75 95.82 338.07 98.63 330.29 94.7 336.89 80.54 335.05 75.36 332.65 75.11 329.79 77.54 328.46" style="opacity:0.1"></polygon><polygon points="84.41 322.15 81.78 328.13 88.87 327.93 97.64 330.53 89.07 325.58 85.09 326.57 85.13 324.01 88.21 318.66 84.41 322.15" style="opacity:0.1"></polygon><polygon points="85.61 332.28 89.65 331.27 88.87 327.93 81.78 328.13 85.61 332.28" style="opacity:0.30000000000000004"></polygon><polygon points="95.67 335.26 89.65 331.27 88.87 327.93 97.64 330.53 95.67 335.26" style="opacity:0.4"></polygon><polygon points="94.12 313.23 95 319.92 98.53 323.23 101.65 318.86 101.17 312.46 94.12 313.23" style="opacity:0.2"></polygon><polygon points="99.94 324.98 103.29 319.18 101.17 312.46 101.65 318.86 98.53 323.23 99.94 324.98" style="opacity:0.1"></polygon><polygon points="98.63 330.29 99.94 324.98 103.29 319.18 101.17 312.46 111.4 317.99 108.02 322.13 101.84 324.92 98.63 330.29" style="opacity:0.30000000000000004"></polygon><polygon points="99.7 345.7 95.82 338.07 98.63 330.29 101.84 324.92 108.02 322.13 111.4 317.99 112.98 323.07 108.26 322.52 103.29 326.11 100.83 330.16 99.7 345.7" style="opacity:0.4"></polygon><polygon points="102.58 341.75 100.39 336.25 99.7 345.7 102.58 341.75" style="opacity:0.30000000000000004"></polygon><polygon points="109.05 338.89 109.29 333.78 111.26 325.58 117.8 334.25 110.05 337.45 109.05 338.89" style="opacity:0.4"></polygon><polygon points="108.26 322.52 111.26 325.58 117.8 334.25 119.64 333.5 117.66 327.43 112.98 323.07 108.26 322.52" style="opacity:0.30000000000000004"></polygon><polygon points="102.58 341.75 109.05 338.89 109.29 333.78 111.26 325.58 108.26 322.52 103.29 326.11 100.83 330.16 100.39 336.25 102.58 341.75" style="opacity:0.2"></polygon><polygon points="93.08 338.75 91.44 345.57 99.7 345.7 95.82 338.07 93.08 338.75" style="opacity:0.30000000000000004"></polygon><polygon points="88.13 342.12 90.14 338.35 93.08 338.75 91.44 345.57 88.13 342.12" style="opacity:0.4"></polygon><polygon points="82.28 341.18 83.94 337.49 90.14 338.35 88.13 342.12 82.28 341.18" style="opacity:0.30000000000000004"></polygon><polygon points="78.74 340.61 79.64 336.89 83.94 337.49 82.28 341.18 78.74 340.61" style="opacity:0.4"></polygon><polygon points="72.39 333.49 79.64 336.89 78.74 340.61 71.88 337.73 72.39 333.49" style="opacity:0.30000000000000004"></polygon><polygon points="85.13 324.01 85.09 326.57 89.07 325.58 97.64 330.53 95.67 335.26 98.63 330.29 99.94 324.98 98.53 323.23 95 319.92 94.12 313.23 88.21 318.66 85.13 324.01" style="opacity:0.05"></polygon><polygon points="109.24 334 121.15 323.06 126.22 322.51 133.57 326.49 134.7 330.13 138.06 333.26 139.49 337.62 132.6 340.46 131.88 341.5 127.23 343.56 125.17 346.39 119.23 346.3 116.85 343.82 110.11 342.73 105.18 340.67 105.54 337.62 106.89 334.63 109.24 334" style="fill:#e0e0e0"></polygon><polygon points="109.24 334 106.89 334.63 105.54 337.62 110.75 340.06 120.41 341.4 122.38 340.91 124.39 335.32 121.57 340.07 111.4 338.74 107.67 337.01 107.5 334.96 109.24 334" style="opacity:0.1"></polygon><polygon points="114.17 329.47 112.29 333.77 117.38 333.62 123.69 335.5 117.52 331.94 114.67 332.65 114.7 330.81 116.91 326.96 114.17 329.47" style="opacity:0.1"></polygon><polygon points="115.04 336.75 117.94 336.03 117.38 333.62 112.29 333.77 115.04 336.75" style="opacity:0.30000000000000004"></polygon><polygon points="122.27 338.89 117.94 336.03 117.38 333.62 123.69 335.5 122.27 338.89" style="opacity:0.4"></polygon><polygon points="121.15 323.06 121.79 327.87 124.33 330.25 126.56 327.11 126.22 322.51 121.15 323.06" style="opacity:0.2"></polygon><polygon points="125.34 331.5 127.74 327.34 126.22 322.51 126.56 327.11 124.33 330.25 125.34 331.5" style="opacity:0.1"></polygon><polygon points="124.39 335.32 125.34 331.5 127.74 327.34 126.22 322.51 133.57 326.49 131.14 329.46 126.7 331.46 124.39 335.32" style="opacity:0.30000000000000004"></polygon><polygon points="125.17 346.39 122.38 340.91 124.39 335.32 126.7 331.46 131.14 329.46 133.57 326.49 134.7 330.13 131.31 329.74 127.74 332.31 125.98 335.23 125.17 346.39" style="opacity:0.4"></polygon><polygon points="127.23 343.56 125.66 339.6 125.17 346.39 127.23 343.56" style="opacity:0.30000000000000004"></polygon><polygon points="131.88 341.5 132.05 337.83 133.47 331.94 138.17 338.17 132.6 340.46 131.88 341.5" style="opacity:0.4"></polygon><polygon points="131.31 329.74 133.47 331.94 138.17 338.17 139.49 337.62 138.06 333.26 134.7 330.13 131.31 329.74" style="opacity:0.30000000000000004"></polygon><polygon points="127.23 343.56 131.88 341.5 132.05 337.83 133.47 331.94 131.31 329.74 127.74 332.31 125.98 335.23 125.66 339.6 127.23 343.56" style="opacity:0.2"></polygon><polygon points="120.41 341.4 119.23 346.3 125.17 346.39 122.38 340.91 120.41 341.4" style="opacity:0.30000000000000004"></polygon><polygon points="116.85 343.82 118.29 341.11 120.41 341.4 119.23 346.3 116.85 343.82" style="opacity:0.4"></polygon><polygon points="112.64 343.14 113.84 340.49 118.29 341.11 116.85 343.82 112.64 343.14" style="opacity:0.30000000000000004"></polygon><polygon points="110.11 342.73 110.75 340.06 113.84 340.49 112.64 343.14 110.11 342.73" style="opacity:0.4"></polygon><polygon points="105.54 337.62 110.75 340.06 110.11 342.73 105.18 340.67 105.54 337.62" style="opacity:0.30000000000000004"></polygon><polygon points="114.7 330.81 114.67 332.65 117.52 331.94 123.69 335.5 122.27 338.89 124.39 335.32 125.34 331.5 124.33 330.25 121.79 327.87 121.15 323.06 116.91 326.96 114.7 330.81" style="opacity:0.05"></polygon><polygon points="138.06 333.26 134.7 330.13 133.57 326.49 126.22 322.51 121.15 323.06 117.03 326.85 112.98 323.07 111.4 317.99 101.17 312.46 94.12 313.23 88.21 318.66 84.41 322.15 84.41 322.15 77.54 328.46 74.27 329.32 72.39 333.49 71.88 337.73 78.74 340.61 88.13 342.12 91.44 345.57 99.7 345.7 102.58 341.75 105.18 340.6 105.18 340.67 110.11 342.73 116.85 343.82 119.23 346.3 125.17 346.39 127.23 343.56 131.88 341.5 132.6 340.46 139.49 337.62 138.06 333.26" style="fill:#fff;opacity:0.30000000000000004"></polygon><path d="M424.15,340.66A29.14,29.14,0,0,0,433,313.47a29.37,29.37,0,0,1-11,26.36C422.6,340.12,423.53,340.37,424.15,340.66Z" style="fill:#99DE9F"></path><path d="M419.39,339.3A18.19,18.19,0,0,0,412,318.35a19.29,19.29,0,0,1,5.78,20C418.28,338.69,418.86,339,419.39,339.3Z" style="fill:#99DE9F"></path><path d="M424.15,340.66A29.14,29.14,0,0,0,433,313.47a29.37,29.37,0,0,1-11,26.36C422.6,340.12,423.53,340.37,424.15,340.66Z" style="opacity:0.30000000000000004"></path><path d="M419.39,339.3A18.19,18.19,0,0,0,412,318.35a19.29,19.29,0,0,1,5.78,20C418.28,338.69,418.86,339,419.39,339.3Z" style="opacity:0.2"></path><path d="M423.25,340.67A26.21,26.21,0,0,0,426,323.35a26.54,26.54,0,0,0-9.2-15.07,28.25,28.25,0,0,1,3.43,31.54Z" style="fill:#99DE9F"></path><path d="M416.82,308.28a28.25,28.25,0,0,1,3.43,31.54l1.46.41C425.63,331.39,426.55,318,416.82,308.28Z" style="opacity:0.2"></path><g style="opacity:0.5"><path d="M433,313.47a29.49,29.49,0,0,1-8.28,23.93,25.3,25.3,0,0,0-7.92-29.12,27.63,27.63,0,0,1,2.48,3.4,30,30,0,0,1,1.94,3.73,28.11,28.11,0,0,1,2.28,12.32,28.56,28.56,0,0,1-3.27,12.09l.72.2.74.21h0l1.54.44c.06-.1.1-.21.15-.31.27.1.53.2.75.3A29.14,29.14,0,0,0,433,313.47Z" style="fill:#fff"></path><path d="M419.26,327.57a18.38,18.38,0,0,0-7.28-9.22,19.29,19.29,0,0,1,5.78,20c.52.31,1.1.61,1.63.92A18.4,18.4,0,0,0,419.26,327.57Z" style="fill:#fff"></path></g><polygon points="406 347.81 417.22 337.51 421.99 336.99 428.91 340.73 429.98 344.16 433.14 347.11 434.49 351.22 428 353.89 427.32 354.87 422.94 356.81 421 359.48 415.41 359.39 413.17 357.06 406.82 356.03 402.17 354.08 402.51 351.21 403.79 348.39 406 347.81" style="fill:#e0e0e0"></polygon><polygon points="406 347.81 403.79 348.39 402.51 351.21 407.42 353.52 416.51 354.78 418.37 354.31 420.27 349.05 417.61 353.52 408.03 352.27 404.52 350.64 404.36 348.71 406 347.81" style="opacity:0.1"></polygon><polygon points="410.65 343.54 408.87 347.59 413.67 347.45 419.61 349.21 413.8 345.87 411.11 346.54 411.14 344.8 413.22 341.18 410.65 343.54" style="opacity:0.1"></polygon><polygon points="411.46 350.4 414.2 349.71 413.67 347.45 408.87 347.59 411.46 350.4" style="opacity:0.30000000000000004"></polygon><polygon points="418.27 352.41 414.2 349.71 413.67 347.45 419.61 349.21 418.27 352.41" style="opacity:0.4"></polygon><polygon points="417.22 337.51 417.82 342.03 420.21 344.27 422.31 341.31 421.99 336.99 417.22 337.51" style="opacity:0.2"></polygon><polygon points="421.16 345.45 423.43 341.53 421.99 336.99 422.31 341.31 420.21 344.27 421.16 345.45" style="opacity:0.1"></polygon><polygon points="420.27 349.05 421.16 345.45 423.43 341.53 421.99 336.99 428.91 340.73 426.63 343.53 422.44 345.42 420.27 349.05" style="opacity:0.30000000000000004"></polygon><polygon points="421 359.48 418.37 354.31 420.27 349.05 422.44 345.42 426.63 343.53 428.91 340.73 429.98 344.16 426.79 343.8 423.42 346.22 421.76 348.96 421 359.48" style="opacity:0.4"></polygon><polygon points="422.94 356.81 421.46 353.08 421 359.48 422.94 356.81" style="opacity:0.30000000000000004"></polygon><polygon points="427.32 354.87 427.48 351.41 428.82 345.86 433.24 351.73 428 353.89 427.32 354.87" style="opacity:0.4"></polygon><polygon points="426.79 343.8 428.82 345.86 433.24 351.73 434.49 351.22 433.14 347.11 429.98 344.16 426.79 343.8" style="opacity:0.30000000000000004"></polygon><polygon points="422.94 356.81 427.32 354.87 427.48 351.41 428.82 345.86 426.79 343.8 423.42 346.22 421.76 348.96 421.46 353.08 422.94 356.81" style="opacity:0.2"></polygon><polygon points="416.51 354.78 415.41 359.39 421 359.48 418.37 354.31 416.51 354.78" style="opacity:0.30000000000000004"></polygon><polygon points="413.17 357.06 414.53 354.5 416.51 354.78 415.41 359.39 413.17 357.06" style="opacity:0.4"></polygon><polygon points="409.2 356.42 410.33 353.92 414.53 354.5 413.17 357.06 409.2 356.42" style="opacity:0.30000000000000004"></polygon><polygon points="406.82 356.03 407.42 353.52 410.33 353.92 409.2 356.42 406.82 356.03" style="opacity:0.4"></polygon><polygon points="402.51 351.21 407.42 353.52 406.82 356.03 402.17 354.08 402.51 351.21" style="opacity:0.30000000000000004"></polygon><polygon points="411.14 344.8 411.11 346.54 413.8 345.87 419.61 349.21 418.27 352.41 420.27 349.05 421.16 345.45 420.21 344.27 417.82 342.03 417.22 337.51 413.22 341.18 411.14 344.8" style="opacity:0.05"></polygon><polygon points="433.14 347.11 429.98 344.16 428.91 340.73 421.99 336.99 417.22 337.51 413.22 341.18 410.65 343.54 410.65 343.54 406 347.81 403.79 348.39 402.51 351.21 402.17 354.08 406.82 356.03 413.17 357.06 415.41 359.39 421 359.48 422.94 356.81 427.32 354.87 428 353.89 433.24 351.73 434.49 351.22 433.14 347.11" style="fill:#fff;opacity:0.30000000000000004"></polygon></g><g id="freepik--Characters--inject-34"><path d="M381.18,310.16c1.76,1.61,2.24,4.17,2.62,6.53l1.17,7.39c.29,1.83.52,3.92-.68,5.34a4.2,4.2,0,0,1-4.51,1,8.72,8.72,0,0,1-3.81-3,20,20,0,0,1-4.08-14.8C372.53,308,377.87,307.13,381.18,310.16Z" style="fill:#455a64"></path><path d="M235.86,276.1c2.15,10,12.42,14.63,27,7.86.46-.31.93-.61,1.42-.89h0a17,17,0,0,1,20.57-2.71l43.23,25A19.72,19.72,0,0,0,341,307.73l3.35-.52,10.42-2.08a25.7,25.7,0,0,1,26.12,10.53l3.77,5.43a22.06,22.06,0,0,1,3.36,10.72h0a26.55,26.55,0,0,0,2.18,9.61l5.39,11.32a3.73,3.73,0,0,1-1.55,4.87l-2.4,1.35a12.86,12.86,0,0,1-15.21-2l-9.15-8.86a12.5,12.5,0,0,0-5.5-3.11c.09,1.17.15,2.35.15,3.55l12.31,25.21a5.93,5.93,0,0,1-3.62,8.29L357.47,386a9.88,9.88,0,0,1-9.39-2.05l-3.87-3.42a4,4,0,0,1,.86-6.51l1.57-.77a5.92,5.92,0,0,1,6.48.8l3,2.53,5.44-3.09-11.38-13.22s-9.39,4-17.8,3.16l-4.41,15,6.37,24.7a4.8,4.8,0,0,0,2.33,3l5.67,3.13a3.87,3.87,0,0,1,1.86,2.12,3.83,3.83,0,0,1-1.68,4.58l-7.18,4.18a3.83,3.83,0,0,1-3.91,0l-2.7-1.65a14.4,14.4,0,0,1-6.5-8.89l-6-24.74a33.41,33.41,0,0,1-1-8V360.59a79.58,79.58,0,0,1-20.65-13l1.2,6.4a3.85,3.85,0,0,0,1.84,2.61l3.76,2.19a3.31,3.31,0,0,1,1.39,1.52,3.26,3.26,0,0,1-1.35,4.09l-5,3a3.25,3.25,0,0,1-3.22,0l-4.8-2.77a9.9,9.9,0,0,1-4.72-6.45l-4.24-19.32a16,16,0,0,1,.28-7.87c-4.62,6.59-11.74,11.55-25.63,10.37v14a3.85,3.85,0,0,0,1.84,3.27l4.91,3a3.46,3.46,0,0,1,1.4,1.58,3.34,3.34,0,0,1-1.41,4.2l-6,3.45a3.32,3.32,0,0,1-3.45-.07l-5.79-3.67a9,9,0,0,1-4.2-7.63V340.05a11.86,11.86,0,0,1,3.16-8.06l9.37-10.11-2-13A25.31,25.31,0,0,1,255,292.28C241.08,299.28,231.41,295.41,235.86,276.1Z" style="fill:#99DE9F"></path><path d="M235.86,276.1c2.15,10,12.42,14.63,27,7.86.46-.31.93-.61,1.42-.89h0a17,17,0,0,1,20.57-2.71l43.23,25A19.72,19.72,0,0,0,341,307.73l3.35-.52,10.42-2.08a25.7,25.7,0,0,1,26.12,10.53l3.77,5.43a22.06,22.06,0,0,1,3.36,10.72h0a26.55,26.55,0,0,0,2.18,9.61l5.39,11.32a3.73,3.73,0,0,1-1.55,4.87l-2.4,1.35a12.86,12.86,0,0,1-15.21-2l-9.15-8.86a12.5,12.5,0,0,0-5.5-3.11c.09,1.17.15,2.35.15,3.55l12.31,25.21a5.93,5.93,0,0,1-3.62,8.29L357.47,386a9.88,9.88,0,0,1-9.39-2.05l-3.87-3.42a4,4,0,0,1,.86-6.51l1.57-.77a5.92,5.92,0,0,1,6.48.8l3,2.53,5.44-3.09-11.38-13.22s-9.39,4-17.8,3.16l-4.41,15,6.37,24.7a4.8,4.8,0,0,0,2.33,3l5.67,3.13a3.87,3.87,0,0,1,1.86,2.12,3.83,3.83,0,0,1-1.68,4.58l-7.18,4.18a3.83,3.83,0,0,1-3.91,0l-2.7-1.65a14.4,14.4,0,0,1-6.5-8.89l-6-24.74a33.41,33.41,0,0,1-1-8V360.59a79.58,79.58,0,0,1-20.65-13l1.2,6.4a3.85,3.85,0,0,0,1.84,2.61l3.76,2.19a3.31,3.31,0,0,1,1.39,1.52,3.26,3.26,0,0,1-1.35,4.09l-5,3a3.25,3.25,0,0,1-3.22,0l-4.8-2.77a9.9,9.9,0,0,1-4.72-6.45l-4.24-19.32a16,16,0,0,1,.28-7.87c-4.62,6.59-11.74,11.55-25.63,10.37v14a3.85,3.85,0,0,0,1.84,3.27l4.91,3a3.46,3.46,0,0,1,1.4,1.58,3.34,3.34,0,0,1-1.41,4.2l-6,3.45a3.32,3.32,0,0,1-3.45-.07l-5.79-3.67a9,9,0,0,1-4.2-7.63V340.05a11.86,11.86,0,0,1,3.16-8.06l9.37-10.11-2-13A25.31,25.31,0,0,1,255,292.28C241.08,299.28,231.41,295.41,235.86,276.1Z" style="opacity:0.15"></path><path d="M235.86,276.1c2.15,10,12.42,14.63,27,7.86.46-.31.93-.61,1.42-.89h0a17,17,0,0,1,20.57-2.71l43.23,25A19.72,19.72,0,0,0,341,307.73l3.35-.52,10.42-2.08a25.7,25.7,0,0,1,26.12,10.53l3.77,5.43a22.06,22.06,0,0,1,3.36,10.72h0a26.55,26.55,0,0,0,2.18,9.61l5.39,11.32a3.73,3.73,0,0,1-1.55,4.87l-2.4,1.35a12.86,12.86,0,0,1-15.21-2l-9.15-8.86a12.5,12.5,0,0,0-5.5-3.11c.09,1.17.15,2.35.15,3.55l12.31,25.21a5.93,5.93,0,0,1-3.62,8.29L357.47,386a9.88,9.88,0,0,1-9.39-2.05l-3.87-3.42a4,4,0,0,1,.86-6.51l1.57-.77a5.92,5.92,0,0,1,6.48.8l3,2.53,5.44-3.09-11.38-13.22s-9.39,4-17.8,3.16l-4.41,15,6.37,24.7a4.8,4.8,0,0,0,2.33,3l5.67,3.13a3.87,3.87,0,0,1,1.86,2.12,3.83,3.83,0,0,1-1.68,4.58l-7.18,4.18a3.83,3.83,0,0,1-3.91,0l-2.7-1.65a14.4,14.4,0,0,1-6.5-8.89l-6-24.74a33.41,33.41,0,0,1-1-8V360.59a79.58,79.58,0,0,1-20.65-13l1.2,6.4a3.85,3.85,0,0,0,1.84,2.61l3.76,2.19a3.31,3.31,0,0,1,1.39,1.52,3.26,3.26,0,0,1-1.35,4.09l-5,3a3.25,3.25,0,0,1-3.22,0l-4.8-2.77a9.9,9.9,0,0,1-4.72-6.45l-4.24-19.32a16,16,0,0,1,.28-7.87c-4.62,6.59-11.74,11.55-25.63,10.37v14a3.85,3.85,0,0,0,1.84,3.27l4.91,3a3.46,3.46,0,0,1,1.4,1.58,3.34,3.34,0,0,1-1.41,4.2l-6,3.45a3.32,3.32,0,0,1-3.45-.07l-5.79-3.67a9,9,0,0,1-4.2-7.63V340.05a11.86,11.86,0,0,1,3.16-8.06l9.37-10.11-2-13A25.31,25.31,0,0,1,255,292.28C241.08,299.28,231.41,295.41,235.86,276.1Z" style="fill:#fff;opacity:0.1"></path><polygon points="290.34 365.75 290.33 365.74 291.09 366.18 290.34 365.75" style="fill:none"></polygon><path d="M345.07,374l1.57-.77a5.92,5.92,0,0,1,6.48.8l3,2.53-4.53,2.57a3.68,3.68,0,0,1-3.81-.11l-.1-.06-3.14-2.18a1.87,1.87,0,0,1-.8-1.54v-.11A3.82,3.82,0,0,1,345.07,374Z" style="fill:#99DE9F"></path><path d="M345.07,374l1.57-.77a5.92,5.92,0,0,1,6.48.8l3,2.53-4.53,2.57a3.68,3.68,0,0,1-3.81-.11l-.1-.06-3.14-2.18a1.87,1.87,0,0,1-.8-1.54v-.11A3.82,3.82,0,0,1,345.07,374Z" style="opacity:0.2"></path><path d="M344.5,376.79l3.14,2.18.1.06v3a3.4,3.4,0,0,0,1.25,2.63c-.31-.22-.62-.45-.91-.7l-3.87-3.42a3.94,3.94,0,0,1-.51-5.38v.11A1.87,1.87,0,0,0,344.5,376.79Z" style="fill:#99DE9F"></path><path d="M326.24,414.78a3.64,3.64,0,0,1,1.67-3.06l7-4.47a3.51,3.51,0,0,1,3.58-.12h0l3.85,2.13a3.87,3.87,0,0,1,1.86,2.12,3.83,3.83,0,0,1-1.68,4.58l-7.18,4.18a3.83,3.83,0,0,1-3.91,0l-2.7-1.65-1-.79A3.62,3.62,0,0,1,326.24,414.78Z" style="fill:#99DE9F"></path><path d="M248.8,369.13a3.82,3.82,0,0,1,.14-6.56l5.2-3a3.36,3.36,0,0,1,3.45.05h0l3.2,1.95a3.46,3.46,0,0,1,1.4,1.58,3.34,3.34,0,0,1-1.41,4.2l-6,3.45a3.32,3.32,0,0,1-3.45-.07l-1.84-1.17h0Z" style="fill:#99DE9F"></path><path d="M288.87,363.2a2.93,2.93,0,0,1,1.5-2.57l5.75-3.21a2.93,2.93,0,0,1,2.92,0l2.31,1.34a3.31,3.31,0,0,1,1.39,1.52,3.26,3.26,0,0,1-1.35,4.09l-5,3a3.25,3.25,0,0,1-3.22,0l-1.72-1h0l-.34-.2-.75-.44A2.92,2.92,0,0,1,288.87,363.2Z" style="fill:#99DE9F"></path><path d="M344.5,376.79l3.14,2.18.1.06v3a3.4,3.4,0,0,0,1.25,2.63c-.31-.22-.62-.45-.91-.7l-3.87-3.42a3.94,3.94,0,0,1-.51-5.38v.11A1.87,1.87,0,0,0,344.5,376.79Z" style="fill:#fff;opacity:0.5"></path><path d="M326.24,414.78a3.64,3.64,0,0,1,1.67-3.06l7-4.47a3.51,3.51,0,0,1,3.58-.12h0l3.85,2.13a3.87,3.87,0,0,1,1.86,2.12,3.83,3.83,0,0,1-1.68,4.58l-7.18,4.18a3.83,3.83,0,0,1-3.91,0l-2.7-1.65-1-.79A3.62,3.62,0,0,1,326.24,414.78Z" style="fill:#fff;opacity:0.5"></path><polygon points="291.43 366.38 291.09 366.18 291.43 366.38 291.43 366.38" style="fill:#99DE9F"></polygon><path d="M248.8,369.13a3.82,3.82,0,0,1,.14-6.56l5.2-3a3.36,3.36,0,0,1,3.45.05h0l3.2,1.95a3.46,3.46,0,0,1,1.4,1.58,3.34,3.34,0,0,1-1.41,4.2l-6,3.45a3.32,3.32,0,0,1-3.45-.07l-1.84-1.17h0Z" style="fill:#fff;opacity:0.5"></path><path d="M288.87,363.2a2.93,2.93,0,0,1,1.5-2.57l5.75-3.21a2.93,2.93,0,0,1,2.92,0l2.31,1.34a3.31,3.31,0,0,1,1.39,1.52,3.26,3.26,0,0,1-1.35,4.09l-5,3a3.25,3.25,0,0,1-3.22,0l-1.72-1h0l-.34-.2-.75-.44A2.92,2.92,0,0,1,288.87,363.2Z" style="fill:#fff;opacity:0.5"></path><path d="M370.58,335.52a2.11,2.11,0,1,0,2.11-2.11A2.11,2.11,0,0,0,370.58,335.52Z" style="fill:#37474f"></path><path d="M385,328.83c0,1.16.41,2.11.91,2.11s.92-.95.92-2.11-.41-2.11-.92-2.11S385,327.66,385,328.83Z" style="fill:#37474f"></path><path d="M329.34,331a15.24,15.24,0,0,0,8.83,7.19,11.66,11.66,0,0,0,10.92-2.38,18.76,18.76,0,0,0,3.9-6,27.76,27.76,0,0,1,3.53-6.21,8.44,8.44,0,0,1,6.43-3,28.43,28.43,0,0,0-2,10.94,13.21,13.21,0,0,0,6,11.09,14.92,14.92,0,0,1,2.47,1.93,44,44,0,0,1,4.89,6.06,25.19,25.19,0,0,0,5.26,5.73,14.4,14.4,0,0,0,8.76,2.76,14.62,14.62,0,0,0,4.2-.76l-.94.53a12.86,12.86,0,0,1-15.21-2l-9.15-8.86a12.53,12.53,0,0,0-8.75-3.55h-4c-15.64,0-23.76-7.06-26-15.05A17.09,17.09,0,0,0,329.34,331Z" style="opacity:0.2"></path><path d="M387.84,355.28a12.94,12.94,0,0,1,7.3-3.54l.48,1a3.73,3.73,0,0,1-1.55,4.87l-2.4,1.35a12.89,12.89,0,0,1-3.43,1.3l-.19-.15A3.24,3.24,0,0,1,387.84,355.28Z" style="fill:#37474f"></path><path d="M352.88,344.89c-24.1-.94-28.23-34-11.85-37.16l-.92-.84h-4.62c-18.2,3.55-11.94,42.69,18.12,38.08Z" style="fill:#fff"></path><path d="M340.11,306.89l.92.84c-16.38,3.2-12.25,36.22,11.85,37.16C327.79,346.73,321.36,311,340.11,306.89Z" style="opacity:0.2"></path><path d="M353.61,345l-.45.06-.28-.14Z" style="fill:#37474f"></path><path d="M335.2,359.38a9.78,9.78,0,0,1,9-6.64c3.79-.06,7.4,1.15,9.07,2.42,5.35-2.44,6.73-5.57,6.73-5.57-1.6,7.88-8.6,10.19-9.84,10.67,0,0-9.39,4-17.8,3.16A8.89,8.89,0,0,0,335.2,359.38Z" style="opacity:0.2"></path><path d="M279.75,314.74c1.92,5.1,6.12,17.51,12.47,25.46s20,15.56,23,20.39a79.58,79.58,0,0,1-20.65-13A80.44,80.44,0,0,1,279.67,331C281,327.64,281,322.94,279.75,314.74Z" style="fill:#fff;opacity:0.2"></path><path d="M360.44,330a54.76,54.76,0,0,0,.2,9.83,27.67,27.67,0,0,1-.66,9.78,11.16,11.16,0,0,1-6.09,7.33c-3,1.24-7,.31-8.66-2.53a8.33,8.33,0,0,1-.24-6.83,51.94,51.94,0,0,1,3.12-6.3,31.18,31.18,0,0,0,3.07-9.95c.31-2.28.36-4.59.73-6.86a13,13,0,0,1,2.56-6.31,6.78,6.78,0,0,1,6.07-2.58c2.79.44,4.82,3.29,3.46,5.86C362.42,324.37,360.84,326.5,360.44,330Z" style="fill:#455a64"></path><path d="M345.07,351.72a5.81,5.81,0,0,0,6,2.69,7.4,7.4,0,0,0,5.27-4.24c2.39-5.25.63-11.57.74-14.91a23.22,23.22,0,0,1,3.64-11.74,19.34,19.34,0,0,0,2.3-4,5,5,0,0,0,.19-2.58,3.76,3.76,0,0,1,.78,4.49c-1.58,2.95-3.16,5.08-3.56,8.56a54.76,54.76,0,0,0,.2,9.83,27.67,27.67,0,0,1-.66,9.78,11.16,11.16,0,0,1-6.09,7.33c-3,1.24-7,.31-8.66-2.53a7.2,7.2,0,0,1-.77-4.57A5.64,5.64,0,0,0,345.07,351.72Z" style="opacity:0.2"></path><path d="M347.61,374.92a5.61,5.61,0,0,1,5.11,0c1.41.82,1.41,2.15,0,3a5.7,5.7,0,0,1-5.12,0C346.18,377.07,346.19,375.74,347.61,374.92Z" style="fill:#99DE9F"></path><path d="M346.48,373.53a1.72,1.72,0,0,1,1.56,0,.48.48,0,0,1,0,.9,1.74,1.74,0,0,1-1.57,0A.48.48,0,0,1,346.48,373.53Z" style="fill:#99DE9F"></path><path d="M348.76,373.08a1.72,1.72,0,0,1,1.56,0,.48.48,0,0,1,0,.91,1.72,1.72,0,0,1-1.56,0A.48.48,0,0,1,348.76,373.08Z" style="fill:#99DE9F"></path><path d="M344.65,374.67a1.74,1.74,0,0,1,1.57,0,.48.48,0,0,1,0,.91,1.72,1.72,0,0,1-1.56,0A.48.48,0,0,1,344.65,374.67Z" style="fill:#99DE9F"></path><g style="opacity:0.30000000000000004"><path d="M347.61,374.92a5.61,5.61,0,0,1,5.11,0c1.41.82,1.41,2.15,0,3a5.7,5.7,0,0,1-5.12,0C346.18,377.07,346.19,375.74,347.61,374.92Z"></path><path d="M346.48,373.53a1.72,1.72,0,0,1,1.56,0,.48.48,0,0,1,0,.9,1.74,1.74,0,0,1-1.57,0A.48.48,0,0,1,346.48,373.53Z"></path><path d="M348.76,373.08a1.72,1.72,0,0,1,1.56,0,.48.48,0,0,1,0,.91,1.72,1.72,0,0,1-1.56,0A.48.48,0,0,1,348.76,373.08Z"></path><path d="M344.65,374.67a1.74,1.74,0,0,1,1.57,0,.48.48,0,0,1,0,.91,1.72,1.72,0,0,1-1.56,0A.48.48,0,0,1,344.65,374.67Z"></path></g><path d="M254,341.33a19.77,19.77,0,0,1-6.47-2.24c.4,4.51,6.47,6.39,6.47,6.39Z" style="opacity:0.2"></path><path d="M289.35,348.34a11.89,11.89,0,0,1-6.13-5.06c-1-1.68-1.57-3.59-2.56-5.27a8.13,8.13,0,0,0-1.62-2,16.41,16.41,0,0,1,.63-5.07,80.44,80.44,0,0,0,14.88,16.63l.26,1.34A11.76,11.76,0,0,1,289.35,348.34Z" style="opacity:0.2"></path><path d="M235.37,289.27a8.17,8.17,0,0,0,1.63,2,10.51,10.51,0,0,0,8.7,2.25c5.33-.95,9-7.12,14.39-7.12a26.25,26.25,0,0,0-5,5.9C245.2,297.21,237.5,296.74,235.37,289.27Z" style="opacity:0.2"></path><path d="M297.36,366.74c1-1.83-.77-4.72-2.38-5.09C298.94,362,299.21,365.49,297.36,366.74Z" style="opacity:0.2"></path><path d="M297.68,359.72c3.53.81,3.62,3.71,2.75,5.17C303.18,360.93,300,359.52,297.68,359.72Z" style="opacity:0.2"></path><path d="M337,418.94c1-1.83-.77-4.72-2.38-5.09C338.54,414.22,338.81,417.68,337,418.94Z" style="opacity:0.2"></path><path d="M338.27,411.47c3.54.81,3.63,3.72,2.76,5.17C343.78,412.68,340.55,411.27,338.27,411.47Z" style="opacity:0.2"></path><path d="M256.43,369.78c1-1.84-.78-4.73-2.39-5.1C258,365.05,258.27,368.52,256.43,369.78Z" style="opacity:0.2"></path><path d="M257,362.76a3.48,3.48,0,0,1,2.76,5.16C262.68,365,259.48,362.37,257,362.76Z" style="opacity:0.2"></path><path d="M325.48,338.69a3.91,3.91,0,0,1-1.14-2.76,3.87,3.87,0,0,1,1.14-2.75h0a3.88,3.88,0,0,1,2.76-1.15,3.9,3.9,0,0,1,0,7.8A3.91,3.91,0,0,1,325.48,338.69Zm1.36-4.16h0a2,2,0,0,0,0,2.8,2,2,0,0,0,2.8,0,2,2,0,1,0-2.8-2.8Z" style="fill:#e0e0e0"></path><path d="M326.59,337a2.34,2.34,0,0,0,.25.3A1.73,1.73,0,0,1,326.59,337Z" style="fill:none"></path><path d="M326.79,333.9a2.46,2.46,0,0,1,3.48,3.48,2.37,2.37,0,0,1-2.31.6c-.41-.11.87.15,1.68-.65a2,2,0,1,0-2.8-2.8,2,2,0,0,0-.58,1.4,1.92,1.92,0,0,0,.33,1.1A2.4,2.4,0,0,1,326.79,333.9Z" style="opacity:0.2"></path><path d="M231.92,324a8.1,8.1,0,0,0,5.61-2.4,12.5,12.5,0,0,0,3.29-6.94c1-6.06-1-12.26-3.1-17.53-.33-.81-.66-1.63-1-2.45-1.84-4.48-3.74-9.12-4.17-13.92l-1.91.18c.46,5.08,2.42,9.85,4.31,14.47l1,2.44c2.1,5.26,3.92,10.91,3,16.5a10.84,10.84,0,0,1-2.75,5.89,5.87,5.87,0,0,1-5.64,1.63,6.15,6.15,0,0,1-3.29-2.82,16.26,16.26,0,0,1-1.68-4.51,57.9,57.9,0,0,1,3.06-36.86l-1.76-.76A59.75,59.75,0,0,0,223.71,315a18,18,0,0,0,1.9,5,8.08,8.08,0,0,0,4.35,3.65A6.47,6.47,0,0,0,231.92,324Z" style="fill:#455a64"></path><path d="M231,322a6.92,6.92,0,0,1-4.78-3.4,16.8,16.8,0,0,1-1.95-5.72,64.8,64.8,0,0,1,3.25-35.74l1.08.46a57.9,57.9,0,0,0-3.06,36.86,16.26,16.26,0,0,0,1.68,4.51,6.15,6.15,0,0,0,3.29,2.82,4.8,4.8,0,0,0,1.93.16A4.63,4.63,0,0,1,231,322Z" style="opacity:0.4"></path><path d="M230.64,280.9l1.91-.18a27.39,27.39,0,0,0,.66,3.9l-1.91.29A29.94,29.94,0,0,1,230.64,280.9Z" style="opacity:0.4"></path><path d="M226.87,276.88l1.76.76a56.17,56.17,0,0,0-2.43,6.72c-.49-.56-1-1.12-1.48-1.69A57.52,57.52,0,0,1,226.87,276.88Z" style="opacity:0.4"></path><path d="M147.65,394.64a3.64,3.64,0,0,1-3.17,0,8.21,8.21,0,0,1-4.21-4.77,27.61,27.61,0,0,1-1.3-7.12l-.48-4.89a18.89,18.89,0,0,1-.13-4.69,5,5,0,0,1,1.84-3.27l9.24-14,10.53,6-10.4,11.55a7.29,7.29,0,0,0-1.86,4.91l.07,11a7.54,7.54,0,0,0,.95,3.64A2.27,2.27,0,0,1,147.65,394.64Z" style="fill:#ffa8a7"></path><path d="M134.71,374a5.65,5.65,0,0,1,5.49-4.12,5,5,0,0,0-1.84,3.27,14.83,14.83,0,0,0,0,3.88q.32,3.21.64,6.42a23.85,23.85,0,0,0,1.22,6.4,8.21,8.21,0,0,0,4.21,4.77,3.64,3.64,0,0,0,3.17,0,2.27,2.27,0,0,0,1.08-1.65,7.86,7.86,0,0,0,1.54,2,14.35,14.35,0,0,1,1,1.08,3.41,3.41,0,0,1,.66,3.7c-.67,1.25-2.23,1.69-3.63,1.91a15.53,15.53,0,0,1-6.26-.12,8,8,0,0,1-5-3.6,12.71,12.71,0,0,1-1.22-5.18l-1.14-12.48c-.12-1.28-.21-2.57-.24-3.85A8.81,8.81,0,0,1,134.71,374Z" style="fill:#37474f"></path><path d="M212.39,413.16c-5.62.27-11.85-5.41-14.62-7.38s-4.61-1.89-5.93-8.13l-5.34-22.22,12.89-2.89,2.74,23.24a7.33,7.33,0,0,0,2.38,4.58l8,7.08a22.35,22.35,0,0,0,4.29,3.13l.28.15C217.15,411.84,216.19,413,212.39,413.16Z" style="fill:#ffa8a7"></path><path d="M191.84,397.65c1.32,6.24,3.15,6.17,5.93,8.13s9,7.65,14.62,7.38c3.8-.18,4.76-1.32,4.64-2.44l4,2.25a3.87,3.87,0,0,1,.86,6.16l0,0a8.71,8.71,0,0,1-5.15,1.94,16.15,16.15,0,0,1-10.16-2.56c-2.39-1.57-4.38-3.78-7-4.89a39,39,0,0,0-4.41-1.27,7.51,7.51,0,0,1-3.9-2.28,7.65,7.65,0,0,1-1.25-5.18A19.19,19.19,0,0,1,191.84,397.65Z" style="fill:#37474f"></path><path d="M184.09,260.38a47,47,0,0,1-23.46-7.9,61.14,61.14,0,0,1,6.7-9.63l38.72,3.49c.38,3.2.66,6.38.87,9.51A47.09,47.09,0,0,1,184.09,260.38Z" style="fill:#ffa8a7"></path><path d="M171.39,324.45c-8.67-26.76-23.09-49.64-10.76-72a46.65,46.65,0,0,0,46.29,3.37c1.91,29.63-3.76,55.24-9.88,66.86,2.33,14,3.56,53.88,3.56,53.88-6.45,6.13-14.76,2.2-14.76,2.2L176.49,348s-17.25,16.2-19,18.38A11.49,11.49,0,0,1,147,358.25C161,333.88,163.07,330.41,171.39,324.45Z" style="fill:#37474f"></path><path d="M208.38,192.47a8.13,8.13,0,0,0-.08-3.07c-.2-.88-2.65-6-2.32-6.37a12.9,12.9,0,0,0,1.55-16.17,4.35,4.35,0,0,0-.78-8.33c-1.57-.28-3.14.33-4.69.66a22.51,22.51,0,0,1-8.06,0c-2.68-.39-5.33-1-8-1.16a16.28,16.28,0,0,0-7.95,1.13,8.85,8.85,0,0,0-5.13,5.89c-4-.78-8.63,2.48-9.37,6.48s1.56,7.79,1.21,11.72a13,13,0,0,1-3.43,7.11c-1.74,2-3.8,3.76-5.62,5.72a32.1,32.1,0,0,0-8.44,19.76c-.25,4.11.37,8.42,2.67,11.84,4.51,6.71,16.6,8.39,24,8.11a39.72,39.72,0,0,0,21.24-7.19c4.28-3,8.2-7.52,8.05-12.76-.07-2.46-1-4.8-1.69-7.18s-1-5,.17-7.22,3.71-3.53,5.25-5.59A7.73,7.73,0,0,0,208.38,192.47Z" style="fill:#263238"></path><path d="M206.05,246.34c-7.66-18.41-10.45-42.48-10.45-42.48h5.15a9.7,9.7,0,0,1,9.41,7.34l7.42,29.72c6.88,7.73,14,25.26,14,25.26l6.16,3.41a2.87,2.87,0,0,1,1.43,3.06l-1.6,8.21a2.87,2.87,0,0,1-2.44,2.31l-5.57.75a2.89,2.89,0,0,1-2.42-.82l-1.5-1.5a2.9,2.9,0,0,1-.68-3l.63-1.77C221.91,274.12,223,269,223,269,207.84,255.89,206.05,246.34,206.05,246.34Z" style="fill:#ffa8a7"></path><path d="M196.35,319c-2.56-22.29-5.68-37.4-5.68-37.4,8.5-4.34,11.27-9,11.27-9-1.47,7.51-8.07,11.58-8.07,11.58C196.31,297,196.35,319,196.35,319Z" style="opacity:0.2"></path><path d="M176.49,348a46.82,46.82,0,0,1-1.06-11.31l-4-12.25,2.49,12.41c-.43,4.07-.85,11.05,0,13.68Z" style="opacity:0.2"></path><path d="M197.78,212.35a6.39,6.39,0,0,1-4.14,1.1,23.14,23.14,0,0,1-18.48-9.17l4.1-.35V190.71l14.28,5.51v7.64h3.65A10.56,10.56,0,0,1,199,207,5,5,0,0,1,197.78,212.35Z" style="fill:#ffa8a7"></path><path d="M180.26,191.1c2.33,5.23,6.94,9.72,13.28,10.46v-5.34Z" style="opacity:0.2"></path><path d="M181.81,180.54a13.45,13.45,0,0,1,.15,3.35,3.86,3.86,0,0,1-1.11,2.23,2.47,2.47,0,0,1-2.25.67,4.36,4.36,0,0,0-8.47-2.07,5.49,5.49,0,0,0,.92,4.54,10.19,10.19,0,0,0,3.64,3,3.69,3.69,0,0,0,4.4-1.72c4.24,5.38,11.64,9.41,18.57,8.83a9.86,9.86,0,0,0,5.28-1.86c2.62-2,2.81-5.09,3.14-8.11A42.8,42.8,0,0,0,206,177.9c-.85-5.26-3.19-10.44-7.28-13.87C196.33,175.49,185.83,179.7,181.81,180.54Z" style="fill:#ffa8a7"></path><polygon points="196.24 179.24 200.99 185.09 196.57 186.61 196.24 179.24" style="fill:#f28f8f"></polygon><path d="M192.52,189.46l3.7,1.17a2.3,2.3,0,0,1-2.51,1.13A2.06,2.06,0,0,1,192.52,189.46Z" style="fill:#f28f8f"></path><path d="M192.52,189.46l3.7,1.17a2.3,2.3,0,0,1-2.51,1.13A2.06,2.06,0,0,1,192.52,189.46Z" style="opacity:0.30000000000000004"></path><path d="M194.92,191.69a2.1,2.1,0,0,1-1.21.07,1.87,1.87,0,0,1-1.19-1.69,2.17,2.17,0,0,1,1.43.28A2.14,2.14,0,0,1,194.92,191.69Z" style="fill:#f28f8f"></path><path d="M189.7,180.46a1.32,1.32,0,1,0,1.26-1.38A1.33,1.33,0,0,0,189.7,180.46Z" style="fill:#263238"></path><path d="M200.74,179.53a1.32,1.32,0,1,0,1.25-1.37A1.31,1.31,0,0,0,200.74,179.53Z" style="fill:#263238"></path><path d="M201.78,174.24l3,1.88a1.86,1.86,0,0,0-.66-2A2.22,2.22,0,0,0,201.78,174.24Z" style="fill:#263238"></path><path d="M190.5,174.59l-2.82,2.15a1.87,1.87,0,0,1,.47-2.09A2.23,2.23,0,0,1,190.5,174.59Z" style="fill:#263238"></path><path d="M165,244.6c2.33-4.54,1.8-10.36-1.88-16.89-1.82-3.24-.17-22.37-.17-22.37l12.2-1.06a23.14,23.14,0,0,0,18.48,9.17,6.39,6.39,0,0,0,4.14-1.1A5,5,0,0,0,199,207a10.56,10.56,0,0,0-1.76-3.09h3.56c4.26,3.79,12.32,19.13,12.82,27.38.25,4.14-2.95,6.17-5.15,7.46a47.69,47.69,0,0,0-.53,7.15A28.45,28.45,0,0,1,197.21,249C185.16,250.58,176.1,249.55,165,244.6Z" style="fill:#99DE9F"></path><path d="M165,244.6c2.33-4.54,1.8-10.36-1.88-16.89-1.82-3.24-.17-22.37-.17-22.37l12.2-1.06a23.14,23.14,0,0,0,18.48,9.17,6.39,6.39,0,0,0,4.14-1.1A5,5,0,0,0,199,207a10.56,10.56,0,0,0-1.76-3.09h3.56c4.26,3.79,12.32,19.13,12.82,27.38.25,4.14-2.95,6.17-5.15,7.46a47.69,47.69,0,0,0-.53,7.15A28.45,28.45,0,0,1,197.21,249C185.16,250.58,176.1,249.55,165,244.6Z" style="opacity:0.2"></path><path d="M156.91,281.51l-16.5-29a11.67,11.67,0,0,1-.29-9.74l12.32-29a14.64,14.64,0,0,1,13.46-8.91h2.28c1.32,12.95-3.18,19.31-15,41.79,0,0,6.24,21,11.12,30.29a35.29,35.29,0,0,1,10.45,7.59,1.87,1.87,0,0,1,.09,2.47l0,0a1.82,1.82,0,0,1-2.24.44c-1.57-.81-3.13-1.64-4.71-2.44A51.69,51.69,0,0,0,174,295.35a1.92,1.92,0,0,1-.12,2.51l0,0a1.94,1.94,0,0,1-1.7.59l-5.16-.76a9.34,9.34,0,0,1-7-5.13A32,32,0,0,1,156.91,281.51Z" style="fill:#ffa8a7"></path><path d="M177.06,231.17a15.34,15.34,0,0,0,18.45,5.42A11.39,11.39,0,0,1,185,239.52C181.31,238.58,178.16,234.8,177.06,231.17Z" style="opacity:0.2"></path><path d="M235.45,270.84a9.19,9.19,0,0,0-5.34-1.2l.91.83a3.84,3.84,0,0,1,1.07,3.92l-.85,2.83a1.81,1.81,0,0,1-2.29,1.21h0a1.82,1.82,0,0,1-1.24-1.94l.18-1.58a3.2,3.2,0,0,1-3.17-2.32,3.21,3.21,0,0,0,1.39,2.62l-.52,1.63.94-1.67a2.72,2.72,0,0,0,.78.2l-.22,1.42a2.16,2.16,0,0,0,1.46,2.4h0a2.18,2.18,0,0,0,2.76-1.44l1.19-4a3.8,3.8,0,0,0-.59-3.37h0A14.11,14.11,0,0,1,235.45,270.84Z" style="opacity:0.2"></path><path d="M254,271.36c6.55,5.76,9.09,14.63,10.43,20.8a103.15,103.15,0,0,1,2,30.55c-.31,3.78-.84,7.58-1.35,11.26-.66,4.74-1.34,9.63-1.56,14.46-.45,10,1.34,18.22,5.32,24.36,4.85,7.5,13.5,11.65,21,10.09,7.71-1.61,12.73-8.4,15-12.3a88.47,88.47,0,0,0,5.5-11.81c.95-2.33,1.93-4.73,3-7C316.94,344.18,321.07,339,326,336a1,1,0,0,1,1.33.37h0a1,1,0,0,1-.36,1.28c-4.61,2.81-8.48,7.68-11.82,14.85-1.06,2.28-2,4.66-3,7a90.91,90.91,0,0,1-5.63,12.07c-2.47,4.17-7.87,11.44-16.3,13.19a17.39,17.39,0,0,1-3.6.37c-7.29,0-14.89-4.3-19.41-11.29-4.2-6.48-6.09-15.06-5.62-25.48.22-4.92.91-9.86,1.57-14.64.51-3.66,1-7.43,1.34-11.16a101.33,101.33,0,0,0-2-30c-1.29-5.91-3.7-14.38-9.82-19.77-4.86-4.27-12.55-6.05-18.07-2.14a12.48,12.48,0,0,0-2.78-.28C238.25,264.67,248.22,266.26,254,271.36Z" style="fill:#455a64"></path><path d="M327.39,336.54a1,1,0,0,1-.4,1.14c-4.61,2.81-8.48,7.68-11.82,14.85-1.06,2.28-2,4.66-3,7a90.91,90.91,0,0,1-5.63,12.07,36,36,0,0,1-3.27,4.66C315.69,355.73,312.94,345.47,327.39,336.54Z" style="opacity:0.4"></path><path d="M258.38,280.18a31.1,31.1,0,0,0-5.12-6.9A25.85,25.85,0,0,1,258.38,280.18Z" style="fill:none"></path><path d="M258.41,280.24l0-.06,0,.06Z" style="fill:#e0e0e0"></path><path d="M253.26,273.28l-.5-.48c-4.86-4.27-12.55-6.05-18.07-2.14l-.91-.15h0C239.49,266.18,247,267,253.26,273.28Z" style="opacity:0.4"></path></g></svg>